# xmcd
#
# Track frame offsets:
#	150
#	16995
#	34582
#	46052
#	60075
#	79487
#	98147
#	112357
#	127765
#	140730
#	155605
#
# Disc length: 2325 seconds
#
# Revision: 7274586
# Processed by: cddbd v1.5.2PL0 Copyright (c) Steve Scherf et al.
# Submitted via: audiograbber 1.83.01
#
DISCID=8a09130b
DTITLE=Garth Brooks - No Fences
DYEAR=1989
DGENRE=Pop/Country
TTITLE0=The Thunder Rolls
TTITLE1=New Way To Fly
TTITLE2=Two Of A Kind, Workin' On A Full House
TTITLE3=Victim Of The Game
TTITLE4=Friends In Low Places
TTITLE5=This Ain't Tennessee
TTITLE6=Wild Horses
TTITLE7=Unanswered Prayers
TTITLE8=Same Old Story
TTITLE9=Mr. Blue
TTITLE10=Wolves
EXTD=
EXTT0=
EXTT1=
EXTT2=
EXTT3=
EXTT4=
EXTT5=
EXTT6=
EXTT7=
EXTT8=
EXTT9=
EXTT10=
PLAYORDER=
